<?xml version="1.0" encoding="UTF-8"?><svg id="_レイヤー_1" xmlns="http://www.w3.org/2000/svg" viewBox="0 0 737.51 710.61"><defs><style>.cls-1{fill:#84e823;}</style></defs><rect class="cls-1" x="56.95" y="355.31" width="28.34" height="28.35"/><rect class="cls-1" x="28.6" y="270.27" width="28.35" height="28.35"/><rect class="cls-1" x="680.56" y="270.27" width="28.35" height="28.35"/><polygon class="cls-1" points="680.56 241.92 680.56 270.27 652.21 270.27 652.21 270.26 595.53 270.26 595.53 298.61 652.22 298.61 652.22 355.3 623.87 355.3 623.87 326.96 567.18 326.96 567.18 355.3 538.83 355.3 538.83 383.65 510.49 383.65 510.49 440.34 538.83 440.34 538.83 468.69 567.18 468.69 567.18 525.38 538.83 525.38 538.83 497.03 482.14 497.03 482.14 468.69 453.8 468.69 453.8 667.11 425.45 667.11 425.45 610.42 397.1 610.42 397.1 582.07 340.41 582.07 340.41 610.42 312.06 610.42 312.06 667.11 283.72 667.11 283.72 468.69 255.37 468.69 255.37 497.03 198.68 497.03 198.68 525.38 170.33 525.38 170.33 468.69 198.68 468.69 198.68 440.34 227.02 440.34 227.02 383.65 198.68 383.65 198.68 355.3 170.33 355.3 170.33 326.96 113.64 326.96 113.64 355.3 85.29 355.3 85.29 298.61 141.98 298.61 141.98 270.26 56.95 270.26 56.95 241.92 141.98 241.92 141.98 156.88 170.33 156.88 170.33 128.53 198.68 128.53 198.68 71.84 227.02 71.84 227.02 43.49 255.37 43.49 255.37 71.84 283.72 71.84 283.72 100.18 453.8 100.18 453.8 71.84 482.14 71.84 482.14 43.49 510.49 43.49 510.49 71.84 538.83 71.84 538.83 128.53 567.18 128.53 567.18 156.88 595.53 156.88 595.53 241.92 680.56 241.92"/><rect class="cls-1" x="652.22" y="355.31" width="28.35" height="28.35" transform="translate(296.91 1035.87) rotate(-90)"/></svg>